<svg width="18" height="18" viewBox="0 0 18 18" fill="none" xmlns="http://www.w3.org/2000/svg">
<path fill-rule="evenodd" clip-rule="evenodd" d="M0 0.78125C0 0.453331 0.265831 0.1875 0.59375 0.1875H2.375C2.64745 0.1875 2.88494 0.372927 2.95102 0.637244L3.43234 2.5625H17.2188C17.3966 2.5625 17.5651 2.64225 17.6779 2.77982C17.7907 2.91738 17.8359 3.09826 17.801 3.27269L16.6135 9.21019C16.5601 9.47681 16.3325 9.67313 16.061 9.68676L4.90226 10.2464L5.24277 12.0625H15.4375C15.7654 12.0625 16.0312 12.3283 16.0312 12.6562C16.0312 12.9842 15.7654 13.25 15.4375 13.25H14.25H5.9375H4.75C4.46428 13.25 4.21907 13.0465 4.16642 12.7657L2.38843 3.28308L1.91141 1.375H0.59375C0.265831 1.375 0 1.10917 0 0.78125ZM3.68417 3.75L4.6814 9.06853L15.5397 8.52391L16.4945 3.75H3.68417ZM5.9375 13.25C4.62582 13.25 3.5625 14.3133 3.5625 15.625C3.5625 16.9367 4.62582 18 5.9375 18C7.24918 18 8.3125 16.9367 8.3125 15.625C8.3125 14.3133 7.24918 13.25 5.9375 13.25ZM14.25 13.25C12.9383 13.25 11.875 14.3133 11.875 15.625C11.875 16.9367 12.9383 18 14.25 18C15.5617 18 16.625 16.9367 16.625 15.625C16.625 14.3133 15.5617 13.25 14.25 13.25ZM5.9375 14.4375C5.28166 14.4375 4.75 14.9692 4.75 15.625C4.75 16.2808 5.28166 16.8125 5.9375 16.8125C6.59334 16.8125 7.125 16.2808 7.125 15.625C7.125 14.9692 6.59334 14.4375 5.9375 14.4375ZM14.25 14.4375C13.5942 14.4375 13.0625 14.9692 13.0625 15.625C13.0625 16.2808 13.5942 16.8125 14.25 16.8125C14.9058 16.8125 15.4375 16.2808 15.4375 15.625C15.4375 14.9692 14.9058 14.4375 14.25 14.4375Z" fill="white"/>
</svg>
