<svg width="181" height="220" viewBox="0 0 181 220" fill="none" xmlns="http://www.w3.org/2000/svg">
<path d="M171.164 214.838C179.105 210.051 174.317 199.734 171.022 193.483C166.589 185.189 156.993 180.105 149.371 175.084C142.003 170.233 134.408 165.779 126.743 161.437C119.304 157.237 111.647 152.86 105.848 146.453C95.7154 135.26 95.9841 120.453 90.9142 107.011C84.5502 90.1252 66.2856 85.3381 52.1859 76.768C38.0862 68.1978 23.8946 56.778 17.3539 41.2005C16.1306 38.266 20.4297 35.7911 21.7096 38.7256C28.2998 54.4516 42.8663 65.6522 57.2984 73.9749C71.7304 82.2975 88.51 87.5796 95.2487 104.359C98.1479 111.501 99.159 119.216 101.224 126.668C103.595 136.051 109.288 144.256 117.247 149.763C125.152 155.391 134.026 159.627 142.307 164.683C150.431 169.639 158.436 174.9 166.044 180.628C176.113 188.222 188.863 210.036 173.702 219.186C170.952 220.848 168.477 216.506 171.234 214.838L171.164 214.838Z" fill="#8FB339"/>
<path d="M139.57 179.129C131.417 181.625 122.112 186.235 113.414 184.283C109.264 183.343 97.4548 178.337 98.8054 172.715C100.418 166.026 112.856 165.736 118.039 165.87C125.925 165.943 133.559 168.654 139.726 173.571C142.222 175.586 138.672 179.107 136.19 177.106C131.621 173.521 126.081 171.39 120.287 170.99C116.009 170.629 105.374 170.078 103.281 174.886L103.274 172.418C106.117 177.326 114.22 180.225 119.495 179.687C125.803 179.037 132.259 176.159 138.304 174.285C141.373 173.337 142.646 178.174 139.57 179.129Z" fill="#8FB339"/>
<path d="M159.419 170.99C161.512 166.86 161.922 162.024 161.554 157.456C161.486 155.623 160.947 153.838 159.991 152.273C158.733 150.208 156.194 146.17 154.08 144.947L157.078 144.537C153.33 148.03 153.726 153.277 153.854 157.76C153.802 158.946 153.993 160.13 154.416 161.239C154.839 162.348 155.485 163.359 156.314 164.209C158.181 166.287 160.076 168.352 161.957 170.417C164.114 172.8 160.585 176.343 158.421 173.953C155.826 171.089 152.814 168.345 150.601 165.156C148.755 162.519 148.897 160.397 148.748 157.293C148.48 151.679 149.038 145.194 153.542 141.001C153.935 140.623 154.438 140.38 154.979 140.307C155.52 140.235 156.069 140.337 156.548 140.598C159.291 142.182 161.54 145.887 163.378 148.447C164.994 150.553 166.026 153.048 166.369 155.681C167.284 161.739 166.374 167.933 163.753 173.472C162.289 176.35 157.948 173.861 159.404 171.004L159.419 170.99Z" fill="#8FB339"/>
<path d="M86.4804 117.964C82.7964 113.078 78.6315 109.04 72.4302 107.859C66.5895 106.756 60.5508 106.318 54.6253 105.611L57.0436 102.471C61.1448 114.35 78.0376 116.832 88.828 116.097C92.0383 115.871 92.0312 120.87 88.828 121.103C75.4354 122.051 57.1284 118.013 52.207 103.744C52.1131 103.374 52.1045 102.987 52.1818 102.614C52.2591 102.24 52.4203 101.889 52.6532 101.586C52.8861 101.284 53.1846 101.039 53.5262 100.868C53.8678 100.698 54.2436 100.608 54.6252 100.604C61.7317 101.488 69.6442 101.566 76.5103 103.737C82.7187 105.703 87.0107 110.476 90.8079 115.517C92.7312 118.077 88.3755 120.524 86.4593 117.985L86.4804 117.964Z" fill="#8FB339"/>
<path d="M88.3049 85.5219C89.9313 81.1661 90.6384 74.986 89.203 70.4817C88.1565 67.7262 86.5888 65.1981 84.5856 63.0359C84.1259 62.4914 80.4561 57.8882 79.8551 58.0932C76.6519 59.2034 80.6965 68.3533 81.446 70.2484C83.3875 75.4856 86.9055 79.9918 91.5152 83.146C94.1598 84.9421 91.7062 89.305 89.0474 87.4948C81.9834 82.6794 78.1367 76.2022 75.4568 68.2473C74.4103 65.0511 73.2718 61.9469 74.0638 58.5245C74.5376 56.5234 75.6194 53.2354 77.6559 52.302C79.9045 51.2696 81.8844 53.193 83.3906 54.5577C86.5317 57.3647 89.2938 60.569 91.6072 64.0895C95.7791 70.5666 95.8073 79.6882 93.1203 86.8158C92.0031 89.814 87.1453 88.5483 88.2908 85.5502L88.3049 85.5219Z" fill="#8FB339"/>
<path d="M117.65 139.276C119.139 136.141 119.668 132.635 119.17 129.2C118.788 126.47 117.508 121.627 114.956 120.064H117.431C114.814 122.044 112.686 126.633 113.605 129.815C114.835 133.874 117.791 137.282 121.051 139.877C123.561 141.878 120.004 145.393 117.515 143.413C113.181 139.969 108.811 134.538 108.337 128.79C107.948 124.017 111.243 118.515 114.963 115.715C115.335 115.495 115.76 115.379 116.193 115.379C116.626 115.379 117.051 115.495 117.424 115.715C121.143 118.02 123.285 123.614 123.993 127.701C124.812 132.475 124.114 137.386 121.998 141.744C120.648 144.636 116.285 142.168 117.65 139.276Z" fill="#8FB339"/>
<path d="M36.0424 73.9604C30.4917 76.6828 22.3175 76.3716 16.6748 74.0099C10.629 71.4714 3.53676 65.2842 1.64172 58.892C0.729552 55.8019 5.55907 54.5363 6.48538 57.6263C7.86424 62.3003 14.2494 67.5116 18.5769 69.336C22.6286 71.0542 29.5512 71.5987 33.5747 69.6117C36.4031 68.1975 38.9416 72.5321 36.0424 73.9604Z" fill="#8FB339"/>
<path d="M33.5183 72.9495C26.0159 65.6734 15.0274 57.4992 4.02485 59.4508C0.878227 59.9953 -0.429867 55.1658 2.75211 54.6143C15.8831 52.3444 28.0099 60.6388 37.0538 69.414C39.3307 71.6909 35.7952 75.2264 33.5183 72.9495Z" fill="#8FB339"/>
<path d="M18.676 38.6902C23.0884 35.8335 23.3005 24.8167 22.7207 20.5034C21.9005 14.5495 18.973 9.26037 15.8123 4.24698L19.2134 5.1874C8.01282 12.1453 14.002 31.8948 21.6883 39.1144C24.0359 41.3205 20.4933 44.849 18.1527 42.6499C7.89969 33.0191 2.67422 9.60684 16.7456 0.838722C17.3264 0.524938 18.0058 0.447519 18.6422 0.622757C19.2786 0.797995 19.8227 1.21231 20.1609 1.77914C24.4177 8.5108 28.1018 15.9708 27.9321 24.145C27.8048 30.1978 26.7866 39.4326 21.158 43.053C18.4568 44.8066 15.989 40.4579 18.6902 38.7043L18.676 38.6902Z" fill="#8FB339"/>
<path d="M45.9846 58.6165C50.8354 49.8484 44.6764 43.2793 38.468 37.5093L42.4066 36.979C40.7661 40.2034 38.7508 44.8774 39.7549 48.6109C40.8297 52.6273 44.3865 55.59 47.7735 57.5628C50.5595 59.1892 48.0918 63.538 45.3058 61.9116C40.7237 59.2387 36.3326 55.2012 34.9113 49.8625C33.5395 44.7572 35.7528 38.9943 38.0508 34.49C38.2441 34.1591 38.5101 33.8766 38.8289 33.6641C39.1478 33.4515 39.5109 33.3145 39.8907 33.2633C40.2704 33.2122 40.6569 33.2484 41.0205 33.369C41.3842 33.4897 41.7156 33.6917 41.9894 33.9597C46.0341 37.7215 50.708 41.9429 52.3485 47.4301C53.6425 51.7929 52.5041 57.174 50.3191 61.0702C48.7564 63.8915 44.4148 61.4166 45.9705 58.6024L45.9846 58.6165Z" fill="#8FB339"/>
</svg>
