<svg width="26" height="25" viewBox="0 0 26 25" fill="none" xmlns="http://www.w3.org/2000/svg">
<path fill-rule="evenodd" clip-rule="evenodd" d="M4.6573 23.6916C4.53088 24.4122 5.24192 24.9763 5.86989 24.6535L13.0024 20.9876L20.1349 24.6535C20.7628 24.9763 21.4739 24.4122 21.3475 23.6916L19.9992 16.0061L25.7229 10.5516C26.2579 10.0418 25.981 9.1098 25.2644 9.008L17.3043 7.87721L13.7551 0.846578C13.4354 0.21325 12.5693 0.21325 12.2496 0.846578L8.70043 7.87721L0.74041 9.008C0.0238023 9.1098 -0.253098 10.0418 0.281821 10.5516L6.00561 16.0061L4.6573 23.6916ZM12.6273 19.1933L6.63794 22.2717L7.7661 15.8411C7.81928 15.538 7.71929 15.2276 7.50164 15.0201L2.77802 10.5187L9.36302 9.58327C9.63524 9.5446 9.87292 9.37075 10.0013 9.11637L13.0024 3.17158L16.0034 9.11637C16.1318 9.37075 16.3695 9.5446 16.6417 9.58327L23.2267 10.5187L18.5031 15.0201C18.2855 15.2276 18.1855 15.538 18.2387 15.8411L19.3668 22.2717L13.3775 19.1933C13.1409 19.0717 12.8639 19.0717 12.6273 19.1933Z" fill="#8FB339"/>
</svg>
