<svg width="174" height="112" viewBox="0 0 174 112" fill="none" xmlns="http://www.w3.org/2000/svg">
<path d="M43.8423 52.9046C44.7982 49.088 45.9904 46.2641 47.419 44.4329C48.8476 42.6016 50.1974 41.6703 51.4684 41.6387C52.0278 41.5923 52.5897 41.6928 53.0983 41.9305C53.6068 42.1682 54.0444 42.5348 54.3676 42.9938C55.0786 44.0764 55.4448 45.3491 55.418 46.644C55.4608 48.13 55.0284 49.5909 54.1837 50.8142C53.7992 51.422 53.2661 51.9218 52.6347 52.2664C52.0034 52.611 51.2947 52.789 50.5755 52.7838C50.4186 52.7808 50.2651 52.7381 50.1291 52.6598C49.9932 52.5815 49.8793 52.47 49.798 52.3358C49.7168 52.2016 49.6708 52.049 49.6644 51.8922C49.658 51.7354 49.6914 51.5796 49.7614 51.4392C50.2178 50.4665 50.4339 49.3984 50.3917 48.3247C50.3654 47.3898 49.9768 46.9329 49.2205 46.9487C48.6637 46.9487 48.0755 47.3636 47.4505 48.1566C46.7167 49.1482 46.1246 50.2371 45.691 51.3919C45.0577 53.0896 44.6087 54.8504 44.3517 56.6441C44.0023 58.8846 43.8616 61.1528 43.9316 63.4193C43.9316 63.7135 44.0366 64.9477 44.2414 67.1326C43.3066 67.2166 42.7078 67.2587 42.4452 67.2639C40.7855 67.3059 39.5775 67.0433 38.837 66.4761C38.0964 65.9089 37.7025 64.9582 37.671 63.6137C37.671 63.0359 37.9074 60.7775 38.4273 56.8542C38.8863 53.7538 39.1163 50.6238 39.1154 47.4896C39.1154 46.7491 39.0523 46.0243 38.9841 45.3205C38.7845 43.2196 41.4736 42.1167 42.7236 43.8184V43.8499C43.6122 45.1108 44.0925 46.6141 44.0996 48.1566C44.1481 49.7437 44.062 51.332 43.8423 52.9046Z" fill="white"/>
<path d="M70.581 41.6545C71.0072 41.6328 71.4346 41.6521 71.8572 41.7123C72.0695 41.763 72.2593 41.8819 72.3976 42.0508C72.5358 42.2197 72.6149 42.4293 72.6226 42.6475C72.6304 42.8656 72.5664 43.0802 72.4405 43.2585C72.3146 43.4368 72.1337 43.5689 71.9255 43.6346C69.3032 44.5188 67.0733 46.2935 65.6229 48.6504C63.8732 51.2239 62.9565 54.2729 62.9969 57.3847C63.0809 60.8861 64.1891 62.6105 66.3215 62.558C67.603 62.5265 68.7375 61.7982 69.7249 60.3731C71.4756 57.7891 72.6468 53.7905 73.2385 48.3773C73.6902 44.102 74.6584 41.3341 76.143 40.0736H76.1692C76.386 39.882 76.6552 39.7599 76.9422 39.7231C77.2291 39.6864 77.5205 39.7366 77.7785 39.8673C78.0366 39.9981 78.2494 40.2032 78.3895 40.4563C78.5296 40.7094 78.5905 40.9988 78.5642 41.2869C78.4305 42.7202 78.3692 44.1594 78.3804 45.5989C78.671 57.2691 77.6398 66.0665 75.2869 71.9909C72.9339 77.9153 68.9563 80.9405 63.354 81.0665C61.0816 81.1191 59.2871 80.5571 57.9706 79.3806C57.3756 78.9042 56.888 78.3075 56.5396 77.6296C56.1911 76.9517 55.9897 76.2079 55.9485 75.4468C55.8224 70.389 62.209 68.619 63.0862 69.1967C63.6481 69.5644 65.0505 71.5497 65.7542 71.8228C65.0137 71.9961 61.5525 72.5581 60.9643 74.6117C60.1555 77.3796 64.9664 80.4468 69.0841 75.2787C69.859 74.1998 70.45 73.0001 70.8331 71.7283C71.95 68.4614 72.498 64.0269 72.477 58.4246C71.819 60.7586 70.5498 62.8745 68.8005 64.5538C67.1128 66.1155 65.3813 66.9173 63.6061 66.9593C62.6028 67.0348 61.5969 66.8507 60.6853 66.4248C59.7737 65.9989 58.9871 65.3456 58.4013 64.5276C57.1758 62.8469 56.5315 60.6795 56.4685 58.0254C56.375 55.0065 57.072 52.0155 58.4905 49.3489C59.8844 46.4356 62.272 44.1151 65.2238 42.8047C66.9161 42.0715 68.7368 41.6806 70.581 41.6545Z" fill="white"/>
<path d="M89.9823 57.7313C89.9606 58.897 90.2526 60.0471 90.8279 61.0612C91.0435 61.4513 91.3638 61.7736 91.7525 61.9916C92.1413 62.2097 92.5832 62.3149 93.0286 62.2954C94.4011 62.2639 95.6862 61.4306 96.8836 59.7954C98.2026 57.9059 99.1606 55.7887 99.7093 53.5506C100.367 51.2135 100.682 48.7933 100.644 46.3657C100.607 44.9266 100.544 43.6609 100.445 42.5684C100.422 42.3401 100.447 42.1095 100.518 41.8914C100.59 41.6733 100.706 41.4724 100.859 41.3015C101.012 41.1306 101.199 40.9934 101.408 40.8987C101.617 40.8039 101.843 40.7537 102.073 40.7512C103.561 40.7127 104.69 40.9613 105.46 41.497C106.232 42.0222 106.637 43.0201 106.674 44.4487C106.674 44.9984 106.378 47.2603 105.786 51.2344C105.252 54.3806 104.98 57.5655 104.972 60.7566C104.99 61.5218 105.059 62.285 105.177 63.0413C105.252 63.4719 105.187 63.9152 104.991 64.3061C104.795 64.697 104.479 65.0149 104.09 65.213C103.7 65.411 103.257 65.4789 102.826 65.4066C102.395 65.3343 101.998 65.1256 101.695 64.8112L101.632 64.7377C100.581 63.5192 100.024 61.7492 99.9666 59.412C99.9666 59.0023 99.9982 58.2145 100.087 57.0433C99.4635 59.6682 98.0546 62.0407 96.0486 63.8448C94.0738 65.5955 92.1182 66.4901 90.1819 66.5287C89.2885 66.578 88.396 66.4181 87.5753 66.0616C86.7546 65.705 86.0286 65.1618 85.455 64.4751C84.2365 63.0745 83.5957 61.0402 83.5327 58.3721C83.4644 55.7307 83.8828 53.0993 84.767 50.6094C85.6055 48.1644 87.0133 45.9538 88.8741 44.1598C90.5388 42.4595 92.7981 41.4711 95.1767 41.4024H95.2187C95.53 41.4028 95.8334 41.5005 96.0864 41.6819C96.3394 41.8633 96.5293 42.1193 96.6294 42.4141C96.7296 42.7088 96.7351 43.0275 96.645 43.3255C96.555 43.6235 96.374 43.8858 96.1273 44.0758C94.5925 45.3223 93.3319 46.8726 92.4246 48.6294C90.8259 51.3965 89.9836 54.5356 89.9823 57.7313Z" fill="white"/>
<path d="M128.822 39.7903C130.541 39.7483 131.786 40.249 132.556 41.2924C133.328 42.3428 133.733 43.7767 133.78 45.5991C133.762 48.1828 133.539 50.761 133.113 53.3093C132.705 55.6959 132.478 58.1101 132.435 60.531C132.472 62.0331 132.688 63.1255 133.087 63.7978C133.564 64.5509 134.247 65.1508 135.056 65.5258C134.678 65.5625 134.137 65.5888 133.439 65.6098C130.988 65.6693 129.237 65.3332 128.186 64.6014C127.136 63.8696 126.583 62.5565 126.527 60.6623C126.611 58.5309 126.851 56.4085 127.246 54.3124C127.68 51.9835 127.917 49.6222 127.955 47.2535C127.908 45.326 127.304 44.3806 126.133 44.4069C125.466 44.4069 124.715 44.8376 123.89 45.6464C122.943 46.6173 122.144 47.7214 121.516 48.9238C120.659 50.5883 120.04 52.3652 119.678 54.2021C119.203 56.2968 118.984 58.4413 119.027 60.5887C119.058 61.76 119.111 62.7684 119.184 63.6035C119.206 63.8271 119.182 64.0528 119.113 64.2668C119.045 64.4808 118.933 64.6786 118.786 64.8481C118.639 65.0177 118.458 65.1555 118.256 65.253C118.053 65.3505 117.833 65.4058 117.609 65.4155H117.582C115.919 65.4575 114.715 65.1966 113.969 64.6329C113.223 64.0692 112.836 63.115 112.808 61.7705C112.808 61.1857 113.059 58.9308 113.559 55.0057C114.02 51.9054 114.251 48.7755 114.253 45.6412C114.253 44.9006 114.189 44.1758 114.121 43.472C113.916 41.3712 116.611 40.2682 117.855 41.9699L117.882 42.0067C118.761 43.2329 119.241 44.6998 119.258 46.2084C119.276 48.0665 119.145 49.923 118.864 51.7599C119.657 48.6538 121.149 45.7703 123.228 43.3302C125.235 41.0123 127.099 39.8323 128.822 39.7903Z" fill="white"/>
<path d="M146.863 39.9372C146.637 39.7573 146.383 39.6154 146.112 39.517C145.62 39.3431 145.093 39.293 144.578 39.3709C144.062 39.4488 143.573 39.6525 143.155 39.9639C142.737 40.2753 142.401 40.6849 142.179 41.1566C141.956 41.6282 141.853 42.1474 141.879 42.6683C141.902 45.4277 141.726 48.1852 141.354 50.9194C141.042 53.13 140.867 55.3576 140.828 57.5897C140.888 59.8656 141.324 61.5848 142.136 62.7472C142.948 63.9097 144.501 64.7535 146.795 65.2788C146.427 64.5014 146.217 62.763 146.164 60.0634C146.172 56.6099 146.453 53.1625 147.005 49.7534C147.621 45.5762 147.922 43.2688 147.908 42.8311C147.912 41.4551 147.563 40.4904 146.863 39.9372Z" fill="white"/>
<path d="M141.537 23.934C143.78 28.4193 147.231 32.2744 148.743 33.913C153.239 25.956 150.377 14.7532 135.749 16.7385C135.085 19.7324 134.721 22.7849 134.662 25.851C134.757 31.9785 137.633 34.9354 143.292 34.7219C144.139 34.6804 144.982 34.5733 145.813 34.4015C142.294 30.7512 141.537 23.934 141.537 23.934Z" fill="white"/>
<path d="M159.468 54.4068C159.591 59.2808 161.081 61.681 163.938 61.6075C165.148 61.546 166.312 61.1214 167.278 60.389C168.155 59.7641 168.922 58.9973 169.547 58.1201C169.692 57.9119 169.898 57.7534 170.136 57.6662C170.374 57.579 170.633 57.5673 170.878 57.6327C171.123 57.6982 171.342 57.8375 171.506 58.0319C171.669 58.2262 171.768 58.4661 171.79 58.7188V58.7451C170.815 60.6982 169.286 62.3205 167.394 63.409C165.769 64.3199 163.95 64.8295 162.089 64.8953C160.943 64.9394 159.8 64.7393 158.737 64.3083C157.674 63.8773 156.715 63.2252 155.923 62.3953C154.2 60.6726 153.299 58.1341 153.218 54.7797C153.113 50.4905 154.204 46.793 156.49 43.6872C158.777 40.5814 161.928 38.9778 165.944 38.8763C168.188 38.8237 169.894 39.3297 171.06 40.3941C171.612 40.8754 172.058 41.4671 172.368 42.1311C172.679 42.795 172.846 43.5165 172.861 44.2492C172.92 45.6766 172.465 47.0777 171.58 48.1988L171.522 48.2671C169.946 50.1894 166.879 48.619 167.43 46.2082C167.583 45.5577 167.658 44.8912 167.651 44.2229C167.605 42.4407 166.811 41.5654 165.267 41.5969C163.453 41.6424 162.012 43.0062 160.944 45.6883C159.861 48.4629 159.358 51.4303 159.468 54.4068Z" fill="white"/>
<path d="M173.99 84.7802L173.896 82.1542L172.073 84.1395C170.4 85.9583 168.352 87.3919 166.07 88.3412C163.695 89.3194 161.199 89.9714 158.649 90.2793C153.47 90.9568 148.145 90.6889 142.793 90.3633C137.323 90.008 131.831 90.4414 126.485 91.6501C123.794 92.2834 121.198 93.2688 118.764 94.5808C117.122 95.5943 115.567 96.7433 114.116 98.0156C142.961 111.592 164.059 95.9568 164.059 95.9568C150.797 108.83 125.513 109.828 103.26 92.9316C99.1631 89.8591 95.1872 86.629 91.1799 83.4042C88.9372 81.6132 86.6735 79.8275 84.3521 78.0838C82.0306 76.3401 79.7197 74.6069 77.1934 73.0312C75.9244 72.2201 74.6072 71.4869 73.2491 70.8358C71.8437 70.1457 70.3705 69.6035 68.853 69.2182C67.2419 68.7954 65.5715 68.6445 63.9108 68.7717C63.0559 68.8514 62.2103 69.0097 61.3845 69.2444C60.5546 69.4966 60.1292 69.9062 59.2836 70.589L61.1429 73.7403C63.0652 72.0176 65.5862 71.5764 68.1913 72.0386C70.7963 72.5007 73.3699 73.6825 75.7858 75.09C78.2084 76.5721 80.5506 78.1815 82.8027 79.9115C85.0874 81.6237 87.3458 83.3832 89.5885 85.1637C94.0843 88.7246 98.5539 92.3486 103.244 95.7572C107.934 99.1659 114.799 104.344 120.13 106.923C125.461 109.502 128.255 110.327 134.169 111.304C140.083 112.28 147.094 111.367 152.887 109.702C158.599 108.059 163.751 104.882 167.782 100.516C169.758 98.3801 171.34 95.9121 172.457 93.2257C173.556 90.5498 174.079 87.6719 173.99 84.7802Z" fill="white"/>
<path d="M29.2887 14.2385C29.2887 14.2385 38.9736 20.5044 44.6669 31.3238C45.2342 13.6713 33.669 5.33092 21.8832 0C21.8832 0 21.3159 18.7974 32.1353 27.9099C39.4358 34.0549 43.1018 38.64 44.7405 40.9772C43.5272 34.1757 36.6942 19.3646 29.2887 14.2385Z" fill="white"/>
<path d="M47.5135 38.7293C47.5135 38.7293 45.2341 26.7702 54.919 22.2113C64.604 17.6524 73.7164 21.6441 73.7164 21.6441C73.7164 21.6441 69.7301 37.0223 50.9327 39.3018C50.9327 39.3018 54.3518 29.6168 64.0315 26.7701C64.0315 26.7701 50.9327 29.0496 47.5135 38.7293Z" fill="white"/>
<path d="M34.8087 82.6739C41.9149 76.3189 53.6271 76.0458 53.6849 76.0353C50.9118 75.1687 43.4695 74.113 41.6418 73.9764C37.1799 73.6287 32.6964 74.2707 28.5114 75.8567C24.9505 77.238 23.9841 77.8262 20.2656 78.6928C16.547 79.5594 9.72977 80.384 7.50812 77.2748C9.75078 85.153 17.7445 91.0511 25.9536 90.8305C31.9096 90.6677 37.3823 87.7108 42.5924 84.8221C45.5494 83.1887 49.6985 80.237 52.6345 78.3147C46.7101 78.2096 40.4915 79.8325 34.8087 82.6739Z" fill="white"/>
<path d="M121.022 81.0876L122.015 80.9195V73.9342L121.022 73.7609V72.9888H127.877V75.1212H126.826L126.726 73.9342H123.228V76.9909H126.658V77.9363H123.228V80.9195L124.221 81.0876V81.8596H121.022V81.0876Z" fill="white"/>
<path d="M142.162 77.469C142.203 78.6415 141.806 79.7872 141.049 80.6833C140.696 81.0995 140.254 81.4308 139.756 81.6527C139.258 81.8746 138.716 81.9813 138.171 81.9649C137.639 81.9805 137.11 81.873 136.626 81.6507C136.143 81.4284 135.717 81.0973 135.382 80.6833C134.656 79.7736 134.283 78.6321 134.331 77.469V77.343C134.285 76.1786 134.657 75.0361 135.382 74.1234C135.716 73.7088 136.142 73.3769 136.626 73.1538C137.11 72.9306 137.638 72.822 138.171 72.8367C138.716 72.8213 139.258 72.9289 139.757 73.1517C140.255 73.3745 140.697 73.7066 141.049 74.1234C141.805 75.0222 142.202 76.1691 142.162 77.343V77.469ZM140.96 77.3272C140.998 76.4265 140.738 75.5383 140.219 74.8009C139.984 74.4828 139.674 74.2274 139.317 74.057C138.96 73.8867 138.566 73.8067 138.171 73.8241C137.788 73.811 137.408 73.894 137.066 74.0656C136.724 74.2371 136.43 74.4918 136.212 74.8062C135.717 75.5514 135.471 76.4337 135.508 77.3272V77.469C135.468 78.3678 135.714 79.2561 136.212 80.0058C136.43 80.3196 136.724 80.5735 137.067 80.7442C137.409 80.9149 137.789 80.9969 138.171 80.9827C138.567 81.001 138.962 80.9221 139.321 80.7527C139.68 80.5833 139.992 80.3287 140.23 80.0111C140.746 79.2669 141.002 78.3736 140.96 77.469V77.3272Z" fill="white"/>
<path d="M156.753 77.4687C156.796 78.6416 156.399 79.7884 155.639 80.683C155.287 81.0998 154.845 81.4315 154.347 81.6534C153.849 81.8753 153.306 81.9817 152.761 81.9645C152.229 81.9802 151.7 81.8726 151.217 81.6503C150.733 81.428 150.307 81.097 149.972 80.683C149.246 79.7733 148.873 78.6317 148.922 77.4687V77.3426C148.875 76.1783 149.248 75.0358 149.972 74.1231C150.307 73.7084 150.732 73.3766 151.216 73.1534C151.7 72.9302 152.229 72.8217 152.761 72.8363C153.307 72.8202 153.849 72.9275 154.348 73.1503C154.846 73.3731 155.288 73.7057 155.639 74.1231C156.398 75.0206 156.795 76.1684 156.753 77.3426V77.4687ZM155.555 77.3269C155.594 76.4261 155.334 75.5379 154.815 74.8006C154.578 74.4827 154.267 74.2276 153.909 74.0573C153.551 73.887 153.157 73.8069 152.761 73.8237C152.379 73.81 152 73.8929 151.658 74.0645C151.317 74.2362 151.024 74.4912 150.807 74.8059C150.31 75.5498 150.064 76.433 150.104 77.3269V77.4687C150.06 78.3678 150.307 79.2571 150.807 80.0055C151.025 80.3196 151.317 80.5737 151.659 80.7445C152.001 80.9153 152.38 80.9971 152.761 80.9824C153.158 81.0011 153.554 80.9224 153.914 80.753C154.274 80.5836 154.587 80.3288 154.825 80.0107C155.339 79.2656 155.595 78.3729 155.555 77.4687V77.3269Z" fill="white"/>
<path d="M167.157 72.9889C167.669 72.9595 168.181 73.0382 168.66 73.2199C169.14 73.4015 169.575 73.682 169.939 74.0432C170.303 74.4044 170.586 74.8382 170.771 75.3162C170.956 75.7942 171.038 76.3059 171.012 76.8178V78.031C171.038 78.5429 170.956 79.0545 170.771 79.5326C170.586 80.0106 170.303 80.4443 169.939 80.8055C169.575 81.1667 169.14 81.4472 168.66 81.6289C168.181 81.8105 167.669 81.8892 167.157 81.8598H163.444V81.0877L164.437 80.9197V73.9343L163.444 73.761V72.9889H167.157ZM165.634 73.9343V80.9197H167.157C167.521 80.9383 167.884 80.8753 168.22 80.7353C168.557 80.5954 168.857 80.382 169.101 80.1109C169.592 79.5245 169.846 78.7745 169.81 78.01V76.7862C169.838 76.034 169.585 75.298 169.101 74.7222C168.857 74.451 168.557 74.2376 168.22 74.0976C167.884 73.9577 167.521 73.8947 167.157 73.9133L165.634 73.9343Z" fill="white"/>
<path d="M21.6888 34.7535C25.1359 35.181 28.3403 36.7508 30.7908 39.2126C24.9609 24.2072 11.5312 25.9982 4.00487 36.8544C-3.71577 47.9889 -0.448941 69.3178 15.3337 68.9344C17.5551 68.9022 19.7444 68.3992 21.7571 67.4586C23.6047 66.6131 25.253 65.3871 26.5943 63.8609C27.9076 62.3245 28.971 60.5911 29.7456 58.7243C30.7956 56.3077 31.4789 53.748 31.7729 51.1297C32.7183 38.7766 21.6888 34.7535 21.6888 34.7535ZM24.483 56.2873C23.8888 58.7567 22.7572 61.0647 21.1689 63.0468C19.6492 64.8815 17.8688 65.8234 15.8274 65.8724C13.3764 65.932 11.5172 64.8098 10.2497 62.5058C8.98215 60.2019 8.30287 57.2257 8.21183 53.5772C8.15516 50.8834 8.58758 48.2017 9.4881 45.6622C10.2957 43.2167 11.6316 40.9789 13.4009 39.1076C15.0921 37.3568 16.9076 36.4587 18.8474 36.4132C20.7872 36.3677 22.3418 37.243 23.5113 39.0393C24.6843 40.846 25.3198 43.7924 25.4178 47.8786C25.4997 50.7059 25.1868 53.5307 24.4882 56.2715L24.483 56.2873Z" fill="white"/>
</svg>
